<svg width="24" height="24" viewBox="0 0 24 24" fill="none" xmlns="http://www.w3.org/2000/svg">
<path fill-rule="evenodd" clip-rule="evenodd" d="M6.00514 7.5C4.75966 7.5 3.75 8.5067 3.75 9.74909V15.0009C3.75 16.243 4.75199 17.25 6.00514 17.25H18.7449C19.9903 17.25 21 16.2433 21 15.0009V9.74909C21 8.50695 19.998 7.5 18.7449 7.5H6.00514ZM9.74999 13.5C9.74763 14.3374 9.07532 15 8.24634 15H7.50366C6.67043 15 6 14.3264 6 13.4956V11.2544C6 10.4149 6.67321 9.75 7.50366 9.75H8.24634C9.07809 9.75 9.74761 10.4212 9.74999 11.25H9C9 10.8357 8.668 10.5 8.25078 10.5H7.49922C7.08544 10.5 6.75 10.8328 6.75 11.2499V13.5001C6.75 13.9143 7.082 14.25 7.49922 14.25H8.25078C8.66456 14.25 9 13.9172 9 13.5001L9.74999 13.5ZM10.5 11.25V15H11.25V12.75H12.7463C13.5768 12.75 14.25 12.0842 14.25 11.25C14.25 10.4216 13.5796 9.75 12.7463 9.75H10.5V11.25ZM11.25 10.5V12H12.7508C13.1646 12 13.5 11.6671 13.5 11.25C13.5 10.8358 13.168 10.5 12.7508 10.5H11.25ZM15 11.25V15H15.75V12.75H17.2463C18.0768 12.75 18.75 12.0842 18.75 11.25C18.75 10.4216 18.0796 9.75 17.2463 9.75H15V11.25ZM15.75 10.5V12H17.2508C17.6646 12 18 11.6671 18 11.25C18 10.8358 17.668 10.5 17.2508 10.5H15.75Z" fill="white"/>
</svg>
