<svg width="24" height="24" viewBox="0 0 24 24" fill="none" xmlns="http://www.w3.org/2000/svg">
<g clip-path="url(#clip0_13_28)">
<path d="M17.56 21C17.4001 21.0007 17.2423 20.9629 17.1 20.89L12 18.22L6.90001 20.89C6.7344 20.9771 6.54768 21.016 6.36108 21.0022C6.17448 20.9885 5.99548 20.9226 5.84444 20.8122C5.69339 20.7018 5.57635 20.5512 5.50662 20.3776C5.4369 20.204 5.41728 20.0142 5.45001 19.83L6.45001 14.2L2.33001 10.2C2.20146 10.0717 2.11028 9.91089 2.06623 9.73471C2.02219 9.55854 2.02695 9.3737 2.08001 9.20002C2.13797 9.0223 2.24458 8.86437 2.38776 8.74418C2.53093 8.62398 2.70493 8.54633 2.89001 8.52002L8.59001 7.69002L11.1 2.56002C11.1819 2.39095 11.3097 2.24836 11.4689 2.14859C11.6281 2.04883 11.8121 1.99591 12 1.99591C12.1879 1.99591 12.3719 2.04883 12.5311 2.14859C12.6903 2.24836 12.8181 2.39095 12.9 2.56002L15.44 7.68002L21.14 8.51002C21.3251 8.53633 21.4991 8.61398 21.6423 8.73418C21.7854 8.85437 21.892 9.0123 21.95 9.19002C22.0031 9.36369 22.0078 9.54854 21.9638 9.72471C21.9197 9.90089 21.8286 10.0617 21.7 10.19L17.58 14.19L18.58 19.82C18.6157 20.0075 18.597 20.2013 18.5261 20.3785C18.4553 20.5557 18.3352 20.7089 18.18 20.82C17.9989 20.9469 17.7809 21.0102 17.56 21ZM12 16.1C12.1603 16.096 12.3189 16.1339 12.46 16.21L16.23 18.21L15.51 14C15.4821 13.8393 15.4939 13.6741 15.5444 13.519C15.595 13.3639 15.6827 13.2235 15.8 13.11L18.8 10.18L14.6 9.56002C14.446 9.52901 14.3014 9.46215 14.1781 9.36486C14.0547 9.26756 13.956 9.14257 13.89 9.00002L12 5.25002L10.11 9.00002C10.0377 9.14373 9.9317 9.26785 9.80113 9.36186C9.67056 9.45587 9.51924 9.51698 9.36001 9.54002L5.16001 10.16L8.16001 13.09C8.27728 13.2035 8.36502 13.3439 8.41557 13.499C8.46612 13.6541 8.47794 13.8193 8.45001 13.98L7.73001 18.14L11.5 16.14C11.6598 16.0806 11.8329 16.0668 12 16.1Z" fill="white"/>
</g>
<defs>
<clipPath id="clip0_13_28">
<rect width="24" height="24" fill="white"/>
</clipPath>
</defs>
</svg>
