<svg width="24" height="24" viewBox="0 0 24 24" fill="none" xmlns="http://www.w3.org/2000/svg">
<g clip-path="url(#clip0_1_41)">
<path d="M4.71 3.29C4.61676 3.19676 4.50607 3.1228 4.38425 3.07234C4.26243 3.02188 4.13186 2.99591 4 2.99591C3.86814 2.99591 3.73758 3.02188 3.61575 3.07234C3.49393 3.1228 3.38324 3.19676 3.29 3.29C3.1017 3.47831 2.99591 3.7337 2.99591 4C2.99591 4.2663 3.1017 4.5217 3.29 4.71L19.29 20.71C19.383 20.8037 19.4936 20.8781 19.6154 20.9289C19.7373 20.9797 19.868 21.0058 20 21.0058C20.132 21.0058 20.2627 20.9797 20.3846 20.9289C20.5064 20.8781 20.617 20.8037 20.71 20.71C20.8037 20.617 20.8781 20.5064 20.9289 20.3846C20.9797 20.2627 21.0058 20.132 21.0058 20C21.0058 19.868 20.9797 19.7373 20.9289 19.6154C20.8781 19.4936 20.8037 19.383 20.71 19.29L4.71 3.29Z" fill="white"/>
<path d="M16.91 14.08L18.35 15.52C19.1071 14.4785 19.5091 13.221 19.4964 11.9335C19.4838 10.6459 19.0574 9.39654 18.28 8.37003C18.1129 8.16316 17.8705 8.03114 17.6061 8.003C17.3417 7.97487 17.0769 8.05294 16.87 8.22003C16.6632 8.38711 16.5311 8.62953 16.503 8.89396C16.4749 9.15839 16.5529 9.42316 16.72 9.63003C17.1893 10.2694 17.4579 11.0338 17.4917 11.8261C17.5255 12.6185 17.3231 13.403 16.91 14.08Z" fill="white"/>
<path d="M21 12C20.9791 13.635 20.3436 15.2022 19.22 16.39L20.64 17.81C22.1359 16.2433 22.9796 14.1661 23 12C22.9816 10.6922 22.6702 9.40514 22.0887 8.23354C21.5072 7.06194 20.6705 6.0356 19.64 5.23003C19.5389 5.14598 19.4222 5.08268 19.2966 5.04372C19.1711 5.00477 19.039 4.99094 18.9081 5.00301C18.7772 5.01508 18.6499 5.05282 18.5336 5.11408C18.4172 5.17534 18.3141 5.25891 18.23 5.36003C18.146 5.46115 18.0827 5.57783 18.0437 5.70341C18.0048 5.829 17.9909 5.96102 18.003 6.09195C18.0151 6.22288 18.0528 6.35015 18.1141 6.4665C18.1753 6.58284 18.2589 6.68598 18.36 6.77003C19.1621 7.3899 19.8154 8.18124 20.2721 9.08614C20.7289 9.99104 20.9776 10.9866 21 12Z" fill="white"/>
<path d="M13.5 18.1L8.4 14.6C8.23164 14.4868 8.03285 14.4275 7.83 14.43H3.5V9.57001H6.74L4.74 7.57001H2.5C2.23478 7.57001 1.98043 7.67536 1.79289 7.8629C1.60536 8.05044 1.5 8.30479 1.5 8.57001V15.43C1.5 15.6952 1.60536 15.9496 1.79289 16.1371C1.98043 16.3246 2.23478 16.43 2.5 16.43H7.5L13.91 20.83C14.0799 20.9399 14.2777 20.9989 14.48 21C14.7452 21 14.9996 20.8947 15.1871 20.7071C15.3746 20.5196 15.48 20.2652 15.48 20V18.33L13.48 16.33L13.5 18.1Z" fill="white"/>
<path d="M13.5 5.90002V10.67L15.5 12.67V4.00002C15.5015 3.81674 15.4527 3.63656 15.3587 3.47917C15.2648 3.32179 15.1294 3.19324 14.9674 3.10758C14.8054 3.02191 14.6229 2.98243 14.4399 2.99344C14.257 3.00446 14.0806 3.06554 13.93 3.17002L9.22998 6.40002L10.67 7.84002L13.5 5.90002Z" fill="white"/>
</g>
<defs>
<clipPath id="clip0_1_41">
<rect width="24" height="24" fill="white"/>
</clipPath>
</defs>
</svg>
